# xmcd CD database file
#
# Track frame offsets:
#	150
#	59014
#	77080
#	117062
#	146911
#	171509
#
# Disc length: 2718 seconds
#
# Revision: 1
# Processed by: cddbd v1.5.2PL0 Copyright (c) Steve Scherf et al.
# Submitted via: CDex 1.51
#
DISCID=560a9c06
DTITLE=Earl Fatha Hines - Recorded live at the Village Vanguard with Roy Eldridge and Coleman Hawkins, 2
DYEAR=1995
DGENRE=Jazz
TTITLE0=The Grand Terrace Medley
TTITLE1=The Man I Love
TTITLE2=Rosetta
TTITLE3=Undecided
TTITLE4=Just One More Chance
TTITLE5=Take The 'a' Train
EXTD=YEAR: 1995
EXTT0=
EXTT1=
EXTT2=
EXTT3=
EXTT4=
EXTT5=
PLAYORDER=
